<?xml version="1.0" encoding="utf-8"?>
<!-- Generator: Adobe Illustrator 16.0.0, SVG Export Plug-In . SVG Version: 6.00 Build 0)  -->
<!DOCTYPE svg PUBLIC "-//W3C//DTD SVG 1.1//EN" "http://www.w3.org/Graphics/SVG/1.1/DTD/svg11.dtd">
<svg version="1.1" id="Capa_1" xmlns="http://www.w3.org/2000/svg" xmlns:xlink="http://www.w3.org/1999/xlink" x="0px" y="0px"
	 width="240.941px" height="153.07px" viewBox="0 0 240.941 153.07" enable-background="new 0 0 240.941 153.07"
	 xml:space="preserve">
<path fill="none" d="M181.963,0H58.977c-6.041,0-10.938,4.897-10.938,10.938v131.193c0,6.041,4.897,10.938,10.938,10.938h122.986
	c6.04,0,10.938-4.897,10.938-10.938V10.938C192.902,4.897,188.003,0,181.963,0z"/>
<g>
	<defs>
		<path id="SVGID_1_" d="M120.47,132.304c-30.823,0-55.77-24.942-55.77-55.77c0-30.823,24.943-55.77,55.77-55.77
			c30.824,0,55.77,24.943,55.77,55.77C176.24,107.359,151.296,132.304,120.47,132.304z M150.647,46.358
			c-3.763-3.763-9.863-3.763-13.626,0l-16.55,16.551L103.92,46.358c-3.763-3.763-9.863-3.763-13.625,0s-3.762,9.863,0,13.626
			l16.551,16.551l-16.551,16.55c-3.762,3.764-3.762,9.864,0,13.626c3.762,3.762,9.863,3.763,13.625,0l16.551-16.551l16.55,16.551
			c3.762,3.762,9.863,3.763,13.626,0s3.763-9.863,0-13.626l-16.551-16.55l16.551-16.551C154.41,56.221,154.41,50.121,150.647,46.358
			z"/>
	</defs>
	<clipPath id="SVGID_2_">
		<use xlink:href="#SVGID_1_"  overflow="visible"/>
	</clipPath>
	<path clip-path="url(#SVGID_2_)" fill="#FFFFFF" d="M120.47,132.304c-30.823,0-55.77-24.942-55.77-55.77
		c0-30.823,24.943-55.77,55.77-55.77c30.824,0,55.77,24.943,55.77,55.77C176.24,107.359,151.296,132.304,120.47,132.304z"/>
</g>
</svg>
