<?xml version="1.0" encoding="utf-8"?>
<!-- Generator: Adobe Illustrator 16.0.0, SVG Export Plug-In . SVG Version: 6.00 Build 0)  -->
<!DOCTYPE svg PUBLIC "-//W3C//DTD SVG 1.1//EN" "http://www.w3.org/Graphics/SVG/1.1/DTD/svg11.dtd">
<svg version="1.1" id="Capa_1" xmlns="http://www.w3.org/2000/svg" xmlns:xlink="http://www.w3.org/1999/xlink" x="0px" y="0px"
	 width="240.941px" height="153.07px" viewBox="0 0 240.941 153.07" enable-background="new 0 0 240.941 153.07"
	 xml:space="preserve">
<g>
	<rect x="43.934" y="4.79" fill="none" width="153.068" height="143.487"/>
	<path fill="#FFFFFF" d="M142.917,30.551c9.234,0,16.723,7.489,16.723,16.721c0,9.233-7.489,16.723-16.723,16.723
		c-9.235,0-16.721-7.489-16.721-16.723C126.196,38.039,133.681,30.551,142.917,30.551z"/>
	<path fill="#FFFFFF" d="M174.27,132.275h-53.802H69.063c-4.618,0-6.675-3.342-4.593-7.464l28.697-56.84
		c2.079-4.121,6.042-4.489,8.849-0.822l28.856,37.71c2.807,3.668,7.711,3.979,10.958,0.693l7.06-7.148
		c3.244-3.286,8.023-2.879,10.672,0.903l18.279,26.111C180.483,129.206,178.889,132.275,174.27,132.275z"/>
</g>
</svg>
