<?xml version="1.0" encoding="utf-8"?>
<!-- Generator: Adobe Illustrator 16.0.0, SVG Export Plug-In . SVG Version: 6.00 Build 0)  -->
<!DOCTYPE svg PUBLIC "-//W3C//DTD SVG 1.1//EN" "http://www.w3.org/Graphics/SVG/1.1/DTD/svg11.dtd">
<svg version="1.1" id="レイヤー_1" xmlns="http://www.w3.org/2000/svg" xmlns:xlink="http://www.w3.org/1999/xlink" x="0px"
	 y="0px" width="512px" height="512px" viewBox="0 0 512 512" enable-background="new 0 0 512 512" xml:space="preserve">
<g id="Icons">
	<g id="Icons_15_">
		<g>
			<path fill="#FFFFFF" d="M251.288,271.925c0,0,15.258,3.468,44.386-9.015c29.129-12.483,29.129-32.597,29.129-32.597
				c-15.258,6.242-28.436-3.468-28.436-3.468l12.483-6.241c23.581-4.855,49.935-29.128,54.789-33.289s11.79-17.339-2.081-12.484
				c-13.87,4.855-29.821,1.388-29.821,1.388l8.323-6.936c40.918-24.968,47.853-49.24,40.918-53.401
				c-6.936-4.161-23.366,10.666-23.366,10.666C174.986,238.382,155.195,389.822,155.195,389.822s-1.272,7.632,8.268,6.996
				C173.002,396.181,164.182,336.826,251.288,271.925z"/>
			<g>
				<path fill="#FFFFFF" d="M132.407,262.165c-2.063,0-3.734-1.667-3.734-3.73v-55.343c0-18.677,15.192-33.864,33.869-33.864h55.03
					c2.063,0,3.734,1.666,3.734,3.729c0,2.062-1.671,3.729-3.734,3.729h-55.03c-14.558,0-26.4,11.844-26.4,26.406v55.343
					C136.141,260.498,134.469,262.165,132.407,262.165z"/>
			</g>
			<g>
				<path fill="#FFFFFF" d="M334.448,377.707h-58.489c-2.063,0-3.734-1.668-3.734-3.729c0-2.063,1.671-3.729,3.734-3.729h58.489
					c14.557,0,26.401-11.845,26.401-26.407V288.8c0-2.062,1.671-3.729,3.734-3.729c2.062,0,3.734,1.668,3.734,3.729v55.042
					C368.318,362.519,353.125,377.707,334.448,377.707z"/>
			</g>
		</g>
	</g>
</g>
</svg>
